<svg width="97" height="97" viewBox="0 0 97 97" fill="none" xmlns="http://www.w3.org/2000/svg">
<g clip-path="url(#clip0_27_30)">
<mask id="mask0_27_30" style="mask-type:alpha" maskUnits="userSpaceOnUse" x="0" y="0" width="97" height="97">
<circle cx="48.5" cy="48.5" r="48.5" fill="#D9D9D9"/>
</mask>
<g mask="url(#mask0_27_30)">
<rect x="-3" width="103" height="97" fill="white"/>
<path d="M16.6866 45.8703V48.2366H20.508V50.2992H16.6866V52.8095H20.9876V55H13.9525V43.6958H20.9876V45.8703H16.6866ZM30.6627 51.8182C30.6627 52.4151 30.5082 52.9641 30.199 53.4651C29.9006 53.966 29.4529 54.3658 28.856 54.6642C28.2697 54.9627 27.5555 55.1119 26.7134 55.1119C25.445 55.1119 24.4004 54.8028 23.5796 54.1846C22.7588 53.5663 22.3111 52.7029 22.2365 51.5943H25.1465C25.1892 52.0207 25.3384 52.3565 25.5942 52.6016C25.8607 52.8468 26.1965 52.9694 26.6015 52.9694C26.9533 52.9694 27.2304 52.8735 27.4329 52.6816C27.6355 52.4897 27.7367 52.2339 27.7367 51.9141C27.7367 51.6263 27.6408 51.3865 27.4489 51.1946C27.2677 51.0027 27.0386 50.8482 26.7614 50.7309C26.4843 50.603 26.1005 50.4538 25.6102 50.2832C24.896 50.0381 24.3098 49.8036 23.8514 49.5797C23.4037 49.3452 23.0146 49.0041 22.6842 48.5564C22.3644 48.0981 22.2045 47.5065 22.2045 46.7816C22.2045 46.1101 22.3751 45.5292 22.7162 45.0388C23.0573 44.5485 23.5263 44.1754 24.1232 43.9196C24.7308 43.6531 25.4237 43.5199 26.2018 43.5199C27.4596 43.5199 28.4562 43.8184 29.1917 44.4153C29.9379 45.0122 30.3589 45.833 30.4549 46.8776H27.4969C27.4436 46.5045 27.305 46.2114 27.0812 45.9982C26.868 45.7743 26.5749 45.6624 26.2018 45.6624C25.882 45.6624 25.6209 45.7477 25.4183 45.9182C25.2265 46.0888 25.1305 46.3393 25.1305 46.6697C25.1305 46.9362 25.2158 47.1654 25.3864 47.3573C25.5676 47.5385 25.7914 47.6877 26.0579 47.8049C26.3244 47.9222 26.7081 48.0714 27.2091 48.2526C27.9339 48.4978 28.5255 48.743 28.9839 48.9881C29.4422 49.2226 29.8366 49.5691 30.1671 50.0274C30.4975 50.4858 30.6627 51.0827 30.6627 51.8182ZM34.9084 51.0347V55H32.1743V43.6958H36.6033C37.9463 43.6958 38.9696 44.0315 39.6732 44.7031C40.3767 45.364 40.7284 46.2593 40.7284 47.3892C40.7284 48.0927 40.5685 48.7216 40.2488 49.2759C39.9396 49.8196 39.476 50.2513 38.8577 50.571C38.2395 50.8802 37.488 51.0347 36.6033 51.0347H34.9084ZM36.2995 48.8442C37.3974 48.8442 37.9463 48.3592 37.9463 47.3892C37.9463 46.3979 37.3974 45.9023 36.2995 45.9023H34.9084V48.8442H36.2995ZM49.0769 52.9374H44.8399L44.1363 55H41.2583L45.3995 43.7757H48.5493L52.6905 55H49.7805L49.0769 52.9374ZM48.3734 50.8588L46.9664 46.7017L45.5434 50.8588H48.3734ZM63.7943 55H61.0602L56.4874 48.0608V55H53.7532V43.6958H56.4874L61.0602 50.699V43.6958H63.7943V55ZM57.7345 40.482C57.969 40.482 58.1822 40.5193 58.3741 40.5939C58.5659 40.6685 58.7791 40.7751 59.0136 40.9137C59.2375 41.0309 59.408 41.1162 59.5253 41.1695C59.6425 41.2121 59.7651 41.2335 59.893 41.2335C60.2874 41.2335 60.5219 40.983 60.5965 40.482H61.9716C61.7158 42.0596 60.9909 42.8484 59.7971 42.8484C59.5519 42.8484 59.3281 42.811 59.1255 42.7364C58.9337 42.6618 58.7152 42.5552 58.47 42.4166C58.2781 42.3101 58.1236 42.2354 58.0063 42.1928C57.8891 42.1395 57.7665 42.1129 57.6386 42.1129C57.2442 42.1129 57.0097 42.3634 56.935 42.8643H55.56C55.8265 41.2761 56.5513 40.482 57.7345 40.482ZM71.0548 43.5199C72.1208 43.5199 73.0854 43.7704 73.9489 44.2714C74.8229 44.7617 75.5104 45.4492 76.0114 46.334C76.5124 47.208 76.7629 48.1993 76.7629 49.3079C76.7629 50.4165 76.5071 51.4131 75.9954 52.2979C75.4945 53.1826 74.8069 53.8754 73.9329 54.3764C73.0695 54.8668 72.1101 55.1119 71.0548 55.1119C69.9996 55.1119 69.0349 54.8668 68.1608 54.3764C67.2974 53.8754 66.6099 53.1826 66.0982 52.2979C65.5973 51.4131 65.3468 50.4165 65.3468 49.3079C65.3468 48.1993 65.5973 47.208 66.0982 46.334C66.6099 45.4492 67.2974 44.7617 68.1608 44.2714C69.0349 43.7704 69.9996 43.5199 71.0548 43.5199ZM71.0548 46.0621C70.1595 46.0621 69.4453 46.3553 68.9123 46.9415C68.39 47.5171 68.1289 48.3059 68.1289 49.3079C68.1289 50.2992 68.39 51.088 68.9123 51.6743C69.4453 52.2605 70.1595 52.5537 71.0548 52.5537C71.9396 52.5537 72.6484 52.2605 73.1814 51.6743C73.7143 51.088 73.9808 50.2992 73.9808 49.3079C73.9808 48.3166 73.7143 47.5278 73.1814 46.9415C72.6591 46.3553 71.9502 46.0621 71.0548 46.0621ZM81.033 52.9054H84.6785V55H78.2989V43.6958H81.033V52.9054Z" fill="black"/>
<rect x="-2.1741" width="102.196" height="26.8482" fill="url(#paint0_linear_27_30)"/>
<rect width="102.196" height="26.8482" transform="matrix(1 0 0 -1 -2.17411 96.8482)" fill="url(#paint1_linear_27_30)"/>
</g>
</g>
<defs>
<linearGradient id="paint0_linear_27_30" x1="48.9241" y1="0" x2="48.9241" y2="26.8482" gradientUnits="userSpaceOnUse">
<stop stop-color="#51AA24"/>
<stop offset="1" stop-color="#347613"/>
</linearGradient>
<linearGradient id="paint1_linear_27_30" x1="51.0982" y1="0" x2="51.0982" y2="26.8482" gradientUnits="userSpaceOnUse">
<stop offset="0.689059" stop-color="#D00100"/>
<stop offset="1" stop-color="#AB0201"/>
</linearGradient>
<clipPath id="clip0_27_30">
<rect width="97" height="97" fill="white"/>
</clipPath>
</defs>
</svg>
