<svg xmlns="http://www.w3.org/2000/svg" xmlns:xlink="http://www.w3.org/1999/xlink" width="324.019" height="53.999" viewBox="0 0 324.019 53.999">
  <defs>
    <linearGradient id="linear-gradient" x1="1" y1="0.5" x2="0" y2="0.5" gradientUnits="objectBoundingBox">
      <stop offset="0" stop-color="#ffd100"/>
      <stop offset="1" stop-color="#ff9f1c"/>
    </linearGradient>
  </defs>
  <g id="Group_541" data-name="Group 541" transform="translate(-301.5 -21.5)">
    <path id="Union_2" data-name="Union 2" d="M11280.1,53l-16.714-23.431-2.553-3.547,2.553-3.115L11280.25,0h17.611l-20.535,25.9,20.535,27.1Zm-24.346,0V31.59h-17.989V53H11223V0h14.764V19.837h17.989V0h14.688V10.232l-8.5,11.553-2.524,3.077-.892,1.087.822,1.142,2.556,3.547,8.543,11.979V53Zm275.937-8.426,1.953-3.15a5.749,5.749,0,0,0,4.291,1.634c1.489,0,3.59-.643,3.59-3.324V38.655a5.265,5.265,0,0,1-4.172,2.069c-3.445,0-6.187-2.362-6.187-7.114,0-4.633,2.654-7.082,6.187-7.082a5.2,5.2,0,0,1,4.172,2.011v-1.66h4.5V39.733c0,5.711-4.582,6.937-8.085,6.937A9.311,9.311,0,0,1,11531.689,44.572Zm4.054-10.962a2.9,2.9,0,0,0,3.095,3.15,3.61,3.61,0,0,0,2.686-1.255V31.747a3.61,3.61,0,0,0-2.686-1.255A2.887,2.887,0,0,0,11535.743,33.61Zm-224.105,12.26v-.629H11527v.629ZM11504.225,33.9a7.247,7.247,0,0,1,7.471-7.375c4.176,0,7.209,3.06,7.209,7.841v1.02h-10.037c.321,1.255,1.486,2.3,3.529,2.3a5.864,5.864,0,0,0,3.445-1.2l1.956,2.944a9.2,9.2,0,0,1-5.9,1.866C11507.552,41.306,11504.225,38.478,11504.225,33.9Zm4.582-1.573h5.81c-.119-.991-.847-2.188-2.921-2.188A2.626,2.626,0,0,0,11508.807,32.329Zm-16.431,6.995v1.631h-4.494V21.515h4.494v7.024a5.2,5.2,0,0,1,4.173-2.011c3.532,0,6.216,2.77,6.216,7.375,0,4.781-2.741,7.4-6.216,7.4A5.384,5.384,0,0,1,11492.376,39.324Zm0-7.548v4.312a3.561,3.561,0,0,0,2.687,1.255,3.126,3.126,0,0,0,3.121-3.44,3.117,3.117,0,0,0-3.121-3.411A3.588,3.588,0,0,0,11492.376,31.776Zm-50.46,2.127a7.239,7.239,0,0,1,7.645-7.375c4.845,0,7.705,3.411,7.705,7.375a7.68,7.68,0,0,1-15.35,0Zm4.61,0c0,1.9,1.11,3.44,3.034,3.44,1.984,0,3.095-1.544,3.095-3.44a3.106,3.106,0,0,0-3.095-3.411C11447.637,30.492,11446.526,32.037,11446.526,33.9Zm-47.719,0c0-4.6,2.687-7.375,6.219-7.375a5.2,5.2,0,0,1,4.173,2.011V21.515h4.465v19.44h-4.465V39.324a5.388,5.388,0,0,1-4.173,1.982C11401.552,41.306,11398.808,38.684,11398.808,33.9Zm4.584,0a3.12,3.12,0,0,0,3.092,3.44,3.7,3.7,0,0,0,2.716-1.284V31.747a3.676,3.676,0,0,0-2.716-1.255A3.1,3.1,0,0,0,11403.392,33.9Zm-31.607,2.77c0-3.411,2.684-4.549,4.842-4.549a5.652,5.652,0,0,1,4.379,1.663v-1.4c0-1.226-1.049-2.072-2.86-2.072a6.18,6.18,0,0,0-3.94,1.518l-1.664-3.121a9.959,9.959,0,0,1,6.393-2.185c3.388,0,6.566,1.255,6.566,5.624v8.8H11381v-1.4a5.816,5.816,0,0,1-4.379,1.75A4.668,4.668,0,0,1,11371.784,36.673Zm4.465.055c0,1.11,1.078,1.634,2.246,1.634a3.134,3.134,0,0,0,2.51-1.02V36.088a3.118,3.118,0,0,0-2.51-.991C11377.327,35.1,11376.249,35.624,11376.249,36.728ZM11332,33.9a7.237,7.237,0,0,1,7.645-7.375c4.845,0,7.7,3.411,7.7,7.375a7.679,7.679,0,0,1-15.349,0Zm4.61,0c0,1.9,1.109,3.44,3.034,3.44,1.984,0,3.095-1.544,3.095-3.44a3.106,3.106,0,0,0-3.095-3.411C11337.725,30.492,11336.615,32.037,11336.615,33.9Zm184.509,7.053V26.879h4.494V28.6a6.177,6.177,0,0,1,4.405-2.1v4.315a3.677,3.677,0,0,0-1.107-.119,4.575,4.575,0,0,0-3.3,1.284v8.977Zm-41,0V32.825a2.036,2.036,0,0,0-2.307-2.333,3.488,3.488,0,0,0-2.744,1.371v9.093h-4.494V26.879h4.494V28.6a6.4,6.4,0,0,1,4.9-2.069c3.182,0,4.642,1.866,4.642,4.46v9.968Zm-20.489,0V26.879h4.494V28.6a6.183,6.183,0,0,1,4.407-2.1v4.315a3.678,3.678,0,0,0-1.106-.119,4.587,4.587,0,0,0-3.3,1.284v8.977Zm-23.64,0-5.108-7.314-1.312,1.631v5.682h-5.019V21.515h5.019V29.5l5.983-7.986h6.187l-7.56,9.093,7.969,10.348Zm-47.22,0V26.879h4.491V28.6a6.181,6.181,0,0,1,4.407-2.1v4.315a3.67,3.67,0,0,0-1.106-.119,4.585,4.585,0,0,0-3.3,1.284v8.977Zm-26.561,0-2.654-8.713-2.628,8.713h-4.845l-4.173-14.077h4.61l2.277,8.626,2.771-8.626h4l2.772,8.626,2.249-8.626h4.639l-4.173,14.077Zm-37.707,0V33.144h-8.085v7.812h-5.019V21.515h5.019v7.259h8.085V21.515h5.019v19.44Zm82.291-24.929V15.4h138.352v.629ZM11386,11.8a3.9,3.9,0,1,1,7.792,0,3.9,3.9,0,1,1-7.792,0Zm1.009,0a2.9,2.9,0,1,0,5.771,0,2.9,2.9,0,1,0-5.771,0Zm-11.1,2.8.586-.75a3.235,3.235,0,0,0,2.457,1.127c1.4,0,1.846-.75,1.846-1.362,0-2.02-4.643-.892-4.643-3.686,0-1.292,1.15-2.185,2.7-2.185a3.693,3.693,0,0,1,2.775,1.1l-.591.716a2.954,2.954,0,0,0-2.266-.939c-.931,0-1.614.5-1.614,1.243,0,1.762,4.645.753,4.645,3.674,0,1.13-.776,2.3-2.892,2.3A3.887,3.887,0,0,1,11375.913,14.607Zm-14.488-2.8a3.918,3.918,0,0,1,4.031-4.051,3.482,3.482,0,0,1,2.976,1.55l-.812.458a2.637,2.637,0,0,0-2.164-1.139,3,3,0,0,0-3.022,3.182,3.017,3.017,0,0,0,3.022,3.182,2.667,2.667,0,0,0,2.164-1.139l.82.446a3.522,3.522,0,0,1-2.984,1.562A3.92,3.92,0,0,1,11361.425,11.8Zm-24.767,0a3.9,3.9,0,1,1,7.795,0,3.9,3.9,0,1,1-7.795,0Zm1.012,0a2.9,2.9,0,1,0,5.772,0,2.9,2.9,0,1,0-5.772,0Zm57.644,3.909V7.879h5.138v.869h-4.161v2.527h4.08v.866h-4.08v3.57Zm-25.621,0V7.879h5.135v.869h-4.158v2.527h4.076v.866h-4.076v2.7h4.158v.869Zm-10.76,0V7.879h.974v7.832Zm-6.481,0V7.879h5.138v.869h-4.161v2.527h4.08v.866h-4.08v3.57Zm-6.479,0V7.879h5.138v.869h-4.161v2.527h4.077v.866h-4.077v3.57Zm-16.43,0-1.728-6.317-1.729,6.317h-1.058l-2.234-7.832h1.081l1.741,6.528,1.8-6.528h.812l1.8,6.528,1.73-6.528h1.093l-2.246,7.832Zm-7.586,0-.692-1.747h-3.9l-.692,1.747h-1.116l3.161-7.832h1.212l3.149,7.832Zm-4.3-2.605h3.327l-1.669-4.228Zm-7.221,2.605V7.879h.977v6.963h3.646v.869Z" transform="translate(-10921 22)" fill="#fff" stroke="rgba(0,0,0,0)" stroke-miterlimit="10" stroke-width="1"/>
    <path id="Path_568" data-name="Path 568" d="M79.569,0,62.7,22.907,60.15,26.022,62.7,29.569,79.419,53H97.181L76.645,25.9,97.181,0Z" transform="translate(279.681 22)" stroke="rgba(0,0,0,0)" stroke-miterlimit="10" stroke-width="1" fill="url(#linear-gradient)"/>
  </g>
</svg>
