<svg xmlns="http://www.w3.org/2000/svg" xmlns:xlink="http://www.w3.org/1999/xlink" width="64.79" height="52.668" viewBox="0 0 64.79 52.668">
  <defs>
    <linearGradient id="linear-gradient" x1="0.5" x2="0.5" y2="1" gradientUnits="objectBoundingBox">
      <stop offset="0" stop-color="#ffd100"/>
      <stop offset="1" stop-color="#ffb81c"/>
    </linearGradient>
  </defs>
  <path id="Path_294" data-name="Path 294" d="M-16.3-98.23a13.69,13.69,0,0,1-7.524-1.881,15.821,15.821,0,0,1-4.807-4.807,22.979,22.979,0,0,1-2.822-7.42,35.621,35.621,0,0,1-.732-6.375,34.386,34.386,0,0,1,5.225-18.6q5.225-8.36,16.3-13.585l1.881,3.762a28.241,28.241,0,0,0-11.181,8.569q-4.7,5.852-4.7,11.913a13.894,13.894,0,0,0,.627,4.389,11.907,11.907,0,0,1,7.733-2.717A13.638,13.638,0,0,1-6.9-121.429q3.971,3.553,3.971,9.823A12.662,12.662,0,0,1-6.9-101.992,13.215,13.215,0,0,1-16.3-98.23Zm35.53,0a13.69,13.69,0,0,1-7.524-1.881A15.82,15.82,0,0,1,6.9-104.918a22.979,22.979,0,0,1-2.821-7.42,35.621,35.621,0,0,1-.732-6.375,34.386,34.386,0,0,1,5.225-18.6q5.225-8.36,16.3-13.585l1.881,3.762a28.241,28.241,0,0,0-11.182,8.569q-4.7,5.852-4.7,11.913a13.894,13.894,0,0,0,.627,4.389,11.907,11.907,0,0,1,7.733-2.717,13.638,13.638,0,0,1,9.4,3.553q3.971,3.553,3.971,9.823a12.662,12.662,0,0,1-3.971,9.614A13.215,13.215,0,0,1,19.228-98.23Z" transform="translate(32.186 150.898)" fill="url(#linear-gradient)"/>
</svg>
