<svg id="Group_95" data-name="Group 95" xmlns="http://www.w3.org/2000/svg" xmlns:xlink="http://www.w3.org/1999/xlink" width="158.073" height="28.774" viewBox="0 0 158.073 28.774">
  <defs>
    <clipPath id="clip-path">
      <rect id="Rectangle_1782" data-name="Rectangle 1782" width="30.254" height="28.774" fill="#ffb81c"/>
    </clipPath>
  </defs>
  <g id="Group_90" data-name="Group 90" transform="translate(0 0)">
    <path id="Path_284" data-name="Path 284" d="M10.539,9.706,1.075,11.08l6.848,6.676L6.306,27.183l8.465-4.45,8.464,4.45-1.616-9.427,6.849-6.676L19,9.706,14.771,1.13Z" transform="translate(0.356 0.374)" fill="#ffb81c"/>
    <g id="Group_89" data-name="Group 89">
      <g id="Group_88" data-name="Group 88" clip-path="url(#clip-path)">
        <path id="Path_285" data-name="Path 285" d="M14.771,1.13,19,9.706l9.464,1.375L21.62,17.757l1.616,9.427-8.465-4.451L6.306,27.184l1.616-9.427L1.075,11.081l9.464-1.375Z" transform="translate(0.356 0.374)" fill="#ffb81c"/>
      </g>
    </g>
  </g>
  <g id="Group_91" data-name="Group 91" transform="translate(31.955 0)">
    <path id="Path_284-2" data-name="Path 284" d="M10.539,9.706,1.075,11.08l6.848,6.676L6.306,27.183l8.465-4.45,8.464,4.45-1.616-9.427,6.849-6.676L19,9.706,14.771,1.13Z" transform="translate(0.356 0.374)" fill="#ffb81c"/>
    <g id="Group_89-2" data-name="Group 89">
      <g id="Group_88-2" data-name="Group 88" clip-path="url(#clip-path)">
        <path id="Path_285-2" data-name="Path 285" d="M14.771,1.13,19,9.706l9.464,1.375L21.62,17.757l1.616,9.427-8.465-4.451L6.306,27.184l1.616-9.427L1.075,11.081l9.464-1.375Z" transform="translate(0.356 0.374)" fill="#ffb81c"/>
      </g>
    </g>
  </g>
  <g id="Group_92" data-name="Group 92" transform="translate(63.909 0)">
    <path id="Path_284-3" data-name="Path 284" d="M10.539,9.706,1.075,11.08l6.848,6.676L6.306,27.183l8.465-4.45,8.464,4.45-1.616-9.427,6.849-6.676L19,9.706,14.771,1.13Z" transform="translate(0.356 0.374)" fill="#ffb81c"/>
    <g id="Group_89-3" data-name="Group 89">
      <g id="Group_88-3" data-name="Group 88" clip-path="url(#clip-path)">
        <path id="Path_285-3" data-name="Path 285" d="M14.771,1.13,19,9.706l9.464,1.375L21.62,17.757l1.616,9.427-8.465-4.451L6.306,27.184l1.616-9.427L1.075,11.081l9.464-1.375Z" transform="translate(0.356 0.374)" fill="#ffb81c"/>
      </g>
    </g>
  </g>
  <g id="Group_93" data-name="Group 93" transform="translate(95.864 0)">
    <path id="Path_284-4" data-name="Path 284" d="M10.539,9.706,1.075,11.08l6.848,6.676L6.306,27.183l8.465-4.45,8.464,4.45-1.616-9.427,6.849-6.676L19,9.706,14.771,1.13Z" transform="translate(0.356 0.374)" fill="#ffb81c"/>
    <g id="Group_89-4" data-name="Group 89">
      <g id="Group_88-4" data-name="Group 88" clip-path="url(#clip-path)">
        <path id="Path_285-4" data-name="Path 285" d="M14.771,1.13,19,9.706l9.464,1.375L21.62,17.757l1.616,9.427-8.465-4.451L6.306,27.184l1.616-9.427L1.075,11.081l9.464-1.375Z" transform="translate(0.356 0.374)" fill="#ffb81c"/>
      </g>
    </g>
  </g>
  <g id="Group_94" data-name="Group 94" transform="translate(127.819 0)">
    <path id="Path_284-5" data-name="Path 284" d="M10.539,9.706,1.075,11.08l6.848,6.676L6.306,27.183l8.465-4.45,8.464,4.45-1.616-9.427,6.849-6.676L19,9.706,14.771,1.13Z" transform="translate(0.356 0.374)" fill="#ffb81c"/>
    <g id="Group_89-5" data-name="Group 89">
      <g id="Group_88-5" data-name="Group 88" clip-path="url(#clip-path)">
        <path id="Path_285-5" data-name="Path 285" d="M14.771,1.13,19,9.706l9.464,1.375L21.62,17.757l1.616,9.427-8.465-4.451L6.306,27.184l1.616-9.427L1.075,11.081l9.464-1.375Z" transform="translate(0.356 0.374)" fill="#ffb81c"/>
      </g>
    </g>
  </g>
</svg>
